<svg width="230" height="24" viewBox="0 0 230 24" fill="none" xmlns="http://www.w3.org/2000/svg">
<path d="M7.80897 24C5.34964 24 3.5533 23.4333 2.41997 22.3C1.28664 21.1667 0.719971 19.3703 0.719971 16.911V9.17599C0.719971 6.69399 1.28097 4.89199 2.40297 3.76999C3.5363 2.64799 5.32697 2.08699 7.77497 2.08699H11.889C13.9743 2.08699 15.527 2.52332 16.547 3.39599C17.567 4.25732 18.128 5.64566 18.23 7.56099C18.264 7.86699 18.2016 8.09932 18.043 8.25799C17.8956 8.41666 17.6746 8.49599 17.38 8.49599C16.8133 8.49599 16.5016 8.19566 16.445 7.59499C16.3656 6.18966 15.9803 5.22066 15.289 4.68799C14.5976 4.14399 13.4643 3.87199 11.889 3.87199H7.77497C6.47164 3.87199 5.43464 4.04199 4.66397 4.38199C3.8933 4.71066 3.33797 5.26599 2.99797 6.04799C2.6693 6.81866 2.50497 7.86132 2.50497 9.17599V16.911C2.50497 18.2257 2.67497 19.2683 3.01497 20.039C3.35497 20.8097 3.9103 21.365 4.68097 21.705C5.45164 22.045 6.4943 22.215 7.80897 22.215H11.889C13.4643 22.215 14.5976 21.9487 15.289 21.416C15.9803 20.872 16.3656 19.8973 16.445 18.492C16.5016 17.8913 16.8133 17.591 17.38 17.591C17.6746 17.591 17.8956 17.676 18.043 17.846C18.2016 18.0047 18.264 18.2313 18.23 18.526C18.128 20.4413 17.567 21.8353 16.547 22.708C15.527 23.5693 13.9743 24 11.889 24H7.80897Z" fill="#11CEF8"/>
<path d="M28.107 24C25.9876 24 24.435 23.5127 23.449 22.538C22.463 21.552 21.97 20.005 21.97 17.897V14.055C21.97 11.913 22.463 10.3547 23.449 9.37999C24.435 8.39399 25.9876 7.91232 28.107 7.93499H30.895C33.0143 7.93499 34.5613 8.42799 35.536 9.41399C36.522 10.3887 37.015 11.9357 37.015 14.055V17.863C37.015 19.9823 36.522 21.535 35.536 22.521C34.5613 23.507 33.0143 24 30.895 24H28.107ZM23.755 17.897C23.755 19.495 24.0723 20.617 24.707 21.263C25.353 21.8977 26.4863 22.215 28.107 22.215H30.895C32.5156 22.215 33.6433 21.8977 34.278 21.263C34.9126 20.617 35.23 19.4837 35.23 17.863V14.055C35.23 12.4343 34.9126 11.3067 34.278 10.672C33.6433 10.0373 32.5156 9.71999 30.895 9.71999H28.107C27.019 9.70866 26.1576 9.83899 25.523 10.111C24.8883 10.383 24.435 10.8363 24.163 11.471C23.891 12.1057 23.755 12.967 23.755 14.055V17.897Z" fill="#11CEF8"/>
<path d="M48.5933 24C46.474 24 44.9213 23.507 43.9353 22.521C42.9493 21.535 42.4563 19.9823 42.4563 17.863V14.021C42.4563 11.9017 42.9436 10.3547 43.9183 9.37999C44.9043 8.39399 46.4626 7.91232 48.5933 7.93499H51.3813C53.0473 7.93499 54.3166 8.21832 55.1893 8.78499C56.0733 9.34032 56.6003 10.2187 56.7703 11.42C56.8043 11.726 56.7363 11.9583 56.5663 12.117C56.4076 12.2757 56.181 12.355 55.8863 12.355C55.6143 12.355 55.4103 12.287 55.2743 12.151C55.1383 12.0037 55.0363 11.794 54.9683 11.522C54.8436 10.8647 54.5093 10.4 53.9653 10.128C53.4213 9.85599 52.56 9.71999 51.3813 9.71999H48.5933C46.9726 9.69732 45.8393 10.0033 45.1933 10.638C44.5586 11.2613 44.2413 12.389 44.2413 14.021V17.863C44.2413 19.4837 44.5586 20.617 45.1933 21.263C45.8393 21.8977 46.9726 22.215 48.5933 22.215H51.3813C52.56 22.215 53.4213 22.079 53.9653 21.807C54.5093 21.535 54.8436 21.0647 54.9683 20.396C55.0363 20.124 55.1383 19.92 55.2743 19.784C55.4103 19.6367 55.6143 19.563 55.8863 19.563C56.181 19.563 56.4076 19.648 56.5663 19.818C56.7363 19.9767 56.8043 20.2033 56.7703 20.498C56.6003 21.6993 56.0733 22.5833 55.1893 23.15C54.3166 23.7167 53.0473 24 51.3813 24H48.5933Z" fill="#11CEF8"/>
<path d="M63.2401 24C62.6395 24 62.3391 23.6997 62.3391 23.099V1.30499C62.3391 0.715657 62.6395 0.42099 63.2401 0.42099C63.8295 0.42099 64.1241 0.715657 64.1241 1.30499V15.432L72.7601 8.01999C73.1908 7.63466 73.6045 7.66299 74.0011 8.10499C74.3865 8.54699 74.3581 8.96632 73.9161 9.36299L67.6601 14.752L74.4601 22.47C74.8568 22.912 74.8285 23.3313 74.3751 23.728C73.9445 24.1133 73.5308 24.085 73.1341 23.643L66.2831 15.925L64.1241 17.778V23.099C64.1241 23.6997 63.8295 24 63.2401 24Z" fill="#11CEF8"/>
<path d="M85.1707 24C83.0853 24 81.561 23.5183 80.5977 22.555C79.6343 21.5917 79.1527 20.073 79.1527 17.999V9.71999H77.1297C76.529 9.71999 76.2287 9.41966 76.2287 8.81899C76.2287 8.22966 76.529 7.93499 77.1297 7.93499H79.1527V4.27999C79.1527 3.67932 79.4473 3.37899 80.0367 3.37899C80.6373 3.37899 80.9377 3.67932 80.9377 4.27999V7.93499H85.2047C85.794 7.93499 86.0887 8.22966 86.0887 8.81899C86.0887 9.41966 85.794 9.71999 85.2047 9.71999H80.9377V17.999C80.9377 19.5857 81.2437 20.685 81.8557 21.297C82.479 21.909 83.584 22.215 85.1707 22.215C85.4993 22.215 85.7317 22.2887 85.8677 22.436C86.015 22.5833 86.0887 22.8043 86.0887 23.099C86.0887 23.6997 85.7827 24 85.1707 24Z" fill="#11CEF8"/>
<path d="M94.5419 24C92.7739 24 91.4762 23.592 90.6489 22.776C89.8329 21.9487 89.4249 20.651 89.4249 18.883C89.4249 17.115 89.8386 15.8173 90.6659 14.99C91.4932 14.1627 92.7852 13.749 94.5419 13.749H102.277C102.254 12.253 101.914 11.2103 101.257 10.621C100.611 10.0203 99.5059 9.71999 97.9419 9.71999H95.9699C94.5306 9.71999 93.4766 9.87299 92.8079 10.179C92.1392 10.485 91.7256 11.0063 91.5669 11.743C91.4876 12.0263 91.3799 12.236 91.2439 12.372C91.1192 12.4967 90.9152 12.559 90.6319 12.559C90.3372 12.559 90.1049 12.4797 89.9349 12.321C89.7762 12.151 89.7196 11.9243 89.7649 11.641C89.9122 10.349 90.4959 9.40832 91.5159 8.81899C92.5472 8.22966 94.0319 7.93499 95.9699 7.93499H97.9419C100.061 7.93499 101.608 8.42799 102.583 9.41399C103.569 10.3887 104.062 11.9357 104.062 14.055V23.099C104.062 23.6997 103.767 24 103.178 24C102.577 24 102.277 23.6997 102.277 23.099V21.416C101.189 23.1387 99.2452 24 96.4459 24H94.5419ZM94.5419 22.215H96.4459C97.5452 22.215 98.5086 22.096 99.3359 21.858C100.175 21.6087 100.849 21.212 101.359 20.668C101.869 20.124 102.175 19.3987 102.277 18.492V15.534H94.5419C93.2839 15.534 92.4112 15.7777 91.9239 16.265C91.4479 16.741 91.2099 17.6137 91.2099 18.883C91.2099 20.141 91.4479 21.0137 91.9239 21.501C92.4112 21.977 93.2839 22.215 94.5419 22.215Z" fill="#11CEF8"/>
<path d="M111.019 24C110.419 24 110.118 23.6997 110.118 23.099V8.81899C110.118 8.22966 110.419 7.93499 111.019 7.93499C111.609 7.93499 111.903 8.22966 111.903 8.81899V23.099C111.903 23.6997 111.609 24 111.019 24ZM110.645 4.82399C109.863 4.82399 109.472 4.42166 109.472 3.61699V2.85199C109.472 2.08132 109.863 1.69599 110.645 1.69599H111.393C112.164 1.69599 112.549 2.08132 112.549 2.85199V3.61699C112.549 4.42166 112.164 4.82399 111.393 4.82399H110.645Z" fill="#11CEF8"/>
<path d="M122.928 24C121.319 24 120.135 23.626 119.375 22.878C118.627 22.13 118.253 20.957 118.253 19.359V1.30499C118.253 0.715657 118.554 0.42099 119.154 0.42099C119.744 0.42099 120.038 0.715657 120.038 1.30499V19.359C120.038 20.4583 120.242 21.212 120.65 21.62C121.058 22.0167 121.812 22.215 122.911 22.215C123.523 22.215 123.829 22.5097 123.829 23.099C123.841 23.6997 123.54 24 122.928 24Z" fill="#11CEF8"/>
<path d="M137.582 24C136.981 24 136.681 23.6997 136.681 23.099V2.98799C136.681 2.38732 136.981 2.08699 137.582 2.08699C138.013 2.08699 138.353 2.28532 138.602 2.68199L147.068 15.619L146.66 15.67L155.126 2.68199C155.364 2.28532 155.721 2.08699 156.197 2.08699C156.73 2.08699 156.996 2.38732 156.996 2.98799V23.099C156.996 23.6997 156.701 24 156.112 24C155.511 24 155.211 23.6997 155.211 23.099V4.77299L155.738 4.94299L147.884 16.911C147.635 17.2963 147.278 17.489 146.813 17.489C146.405 17.489 146.076 17.2963 145.827 16.911L137.973 4.94299L138.466 5.12999V23.099C138.466 23.6997 138.171 24 137.582 24Z" fill="#11CEF8"/>
<path d="M168.12 24C166.352 24 165.054 23.592 164.227 22.776C163.411 21.9487 163.003 20.651 163.003 18.883C163.003 17.115 163.417 15.8173 164.244 14.99C165.071 14.1627 166.363 13.749 168.12 13.749H175.855C175.832 12.253 175.492 11.2103 174.835 10.621C174.189 10.0203 173.084 9.71999 171.52 9.71999H169.548C168.109 9.71999 167.055 9.87299 166.386 10.179C165.717 10.485 165.304 11.0063 165.145 11.743C165.066 12.0263 164.958 12.236 164.822 12.372C164.697 12.4967 164.493 12.559 164.21 12.559C163.915 12.559 163.683 12.4797 163.513 12.321C163.354 12.151 163.298 11.9243 163.343 11.641C163.49 10.349 164.074 9.40832 165.094 8.81899C166.125 8.22966 167.61 7.93499 169.548 7.93499H171.52C173.639 7.93499 175.186 8.42799 176.161 9.41399C177.147 10.3887 177.64 11.9357 177.64 14.055V23.099C177.64 23.6997 177.345 24 176.756 24C176.155 24 175.855 23.6997 175.855 23.099V21.416C174.767 23.1387 172.823 24 170.024 24H168.12ZM168.12 22.215H170.024C171.123 22.215 172.087 22.096 172.914 21.858C173.753 21.6087 174.427 21.212 174.937 20.668C175.447 20.124 175.753 19.3987 175.855 18.492V15.534H168.12C166.862 15.534 165.989 15.7777 165.502 16.265C165.026 16.741 164.788 17.6137 164.788 18.883C164.788 20.141 165.026 21.0137 165.502 21.501C165.989 21.977 166.862 22.215 168.12 22.215Z" fill="#11CEF8"/>
<path d="M184.598 24C183.997 24 183.697 23.6997 183.697 23.099V1.30499C183.697 0.715657 183.997 0.42099 184.598 0.42099C185.187 0.42099 185.482 0.715657 185.482 1.30499V15.432L194.118 8.01999C194.548 7.63466 194.962 7.66299 195.359 8.10499C195.744 8.54699 195.716 8.96632 195.274 9.36299L189.018 14.752L195.818 22.47C196.214 22.912 196.186 23.3313 195.733 23.728C195.302 24.1133 194.888 24.085 194.492 23.643L187.641 15.925L185.482 17.778V23.099C185.482 23.6997 185.187 24 184.598 24Z" fill="#11CEF8"/>
<path d="M200.628 16.656V17.897C200.628 19.495 200.945 20.617 201.58 21.263C202.226 21.8977 203.359 22.215 204.98 22.215H207.768C209.196 22.215 210.233 22.0337 210.879 21.671C211.536 21.297 211.927 20.6567 212.052 19.75C212.097 19.4667 212.188 19.2513 212.324 19.104C212.471 18.9567 212.692 18.883 212.987 18.883C213.282 18.883 213.503 18.968 213.65 19.138C213.809 19.2967 213.871 19.5233 213.837 19.818C213.69 21.246 213.117 22.3 212.12 22.98C211.123 23.66 209.672 24 207.768 24H204.98C202.861 24 201.308 23.5127 200.322 22.538C199.336 21.552 198.843 20.005 198.843 17.897V14.055C198.843 11.913 199.336 10.3547 200.322 9.37999C201.308 8.39399 202.861 7.91232 204.98 7.93499H207.768C209.887 7.93499 211.434 8.42799 212.409 9.41399C213.395 10.3887 213.888 11.9357 213.888 14.055V15.755C213.888 16.3557 213.593 16.656 213.004 16.656H200.628ZM204.98 9.71999C203.359 9.69732 202.226 10.009 201.58 10.655C200.945 11.2897 200.628 12.423 200.628 14.055V14.871H212.103V14.055C212.103 12.4343 211.786 11.3067 211.151 10.672C210.516 10.0373 209.389 9.71999 207.768 9.71999H204.98Z" fill="#11CEF8"/>
<path d="M220.689 24C220.089 24 219.788 23.6997 219.788 23.099V8.81899C219.788 8.22966 220.089 7.93499 220.689 7.93499C221.279 7.93499 221.573 8.22966 221.573 8.81899V11.437C222.163 10.3037 223.013 9.43666 224.123 8.83599C225.245 8.23532 226.571 7.93499 228.101 7.93499C228.702 7.93499 229.002 8.22966 229.002 8.81899C229.002 9.41966 228.702 9.71999 228.101 9.71999C226.084 9.71999 224.52 10.179 223.409 11.097C222.299 12.0037 221.687 13.3013 221.573 14.99V23.099C221.573 23.6997 221.279 24 220.689 24Z" fill="#11CEF8"/>
</svg>
